Normalized EMG Linear Envelopes
nRows=253
nColumns=4

endheader
time	 med_gas_r	  soleus_r	 tib_ant_r	
2.20819	  0.021994	  0.028694	  0.015637	
2.24381	  0.022625	  0.028410	  0.015827	
2.27942	  0.023316	  0.028081	  0.015970	
2.31504	  0.023996	  0.027750	  0.016069	
2.35066	  0.024590	  0.027517	  0.016154	
2.38627	  0.025051	  0.027522	  0.016256	
2.42189	  0.025298	  0.027802	  0.016375	
2.4575	  0.025301	  0.028270	  0.016524	
2.49312	  0.025138	  0.028820	  0.016713	
2.52874	  0.024861	  0.029370	  0.016937	
2.56435	  0.024507	  0.029814	  0.017168	
2.59997	  0.024085	  0.030061	  0.017340	
2.63558	  0.023550	  0.030101	  0.017395	
2.6712	  0.022884	  0.029962	  0.017339	
2.70682	  0.022167	  0.029644	  0.017209	
2.74243	  0.021559	  0.029221	  0.017061	
2.77805	  0.021134	  0.028728	  0.016915	
2.81366	  0.020905	  0.028159	  0.016815	
2.84928	  0.020833	  0.027640	  0.016704	
2.8849	  0.020869	  0.027286	  0.016506	
2.92051	  0.020971	  0.027113	  0.016277	
2.95613	  0.021114	  0.027062	  0.016122	
2.99174	  0.021262	  0.027070	  0.016083	
3.02736	  0.021400	  0.027122	  0.016095	
3.06298	  0.021537	  0.027243	  0.016076	
3.09859	  0.021693	  0.027421	  0.016011	
3.13421	  0.021860	  0.027612	  0.015895	
3.16982	  0.022034	  0.027789	  0.015749	
3.20544	  0.022189	  0.027933	  0.015619	
3.24106	  0.022291	  0.028056	  0.015541	
3.27667	  0.022288	  0.028193	  0.015504	
3.31229	  0.022153	  0.028380	  0.015512	
3.3479	  0.021915	  0.028598	  0.015547	
3.38352	  0.021625	  0.028749	  0.015563	
3.41914	  0.021338	  0.028736	  0.015515	
3.45475	  0.021157	  0.028660	  0.015426	
3.49037	  0.021187	  0.028672	  0.015348	
3.52598	  0.021408	  0.028767	  0.015310	
3.5616	  0.021685	  0.028829	  0.015323	
3.59722	  0.021926	  0.028808	  0.015433	
3.63283	  0.022034	  0.028696	  0.015654	
3.66845	  0.022060	  0.028554	  0.015933	
3.70406	  0.022107	  0.028498	  0.016217	
3.73968	  0.022182	  0.028608	  0.016452	
3.7753	  0.022272	  0.028897	  0.016650	
3.81091	  0.022339	  0.029268	  0.016855	
3.84653	  0.022331	  0.029634	  0.017095	
3.88214	  0.022231	  0.029890	  0.017293	
3.91776	  0.022050	  0.029957	  0.017358	
3.95338	  0.021820	  0.029882	  0.017212	
3.98899	  0.021544	  0.029688	  0.016704	
4.02461	  0.021343	  0.029465	  0.015677	
4.06022	  0.021325	  0.029273	  0.013944	
4.09584	  0.021493	  0.029163	  0.011317	
4.13146	  0.021749	  0.029147	  0.007650	
4.16707	  0.021885	  0.029157	  0.002991	
4.20269	  0.021695	  0.029092	 -0.002259	
4.2383	  0.021059	  0.028878	 -0.007170	
4.27392	  0.020030	  0.028580	 -0.010048	
4.30954	  0.018794	  0.028511	 -0.008247	
4.34515	  0.017739	  0.029087	  0.001884	
4.38077	  0.017934	  0.030854	  0.024919	
4.41638	  0.020748	  0.034416	  0.065927	
4.452	  0.027697	  0.040371	  0.129496	
4.48762	  0.040355	  0.049184	  0.218076	
4.52323	  0.060148	  0.060798	  0.329607	
4.55885	  0.087772	  0.074355	  0.454229	
4.59446	  0.122474	  0.087920	  0.571889	
4.63008	  0.161341	  0.098890	  0.656009	
4.6657	  0.198721	  0.105945	  0.695927	
4.70131	  0.225069	  0.108355	  0.698285	
4.73693	  0.227429	  0.105118	  0.675111	
4.77254	  0.204582	  0.097609	  0.642881	
4.80816	  0.169141	  0.088269	  0.609450	
4.84378	  0.132868	  0.079129	  0.577666	
4.87939	  0.102633	  0.071443	  0.547972	
4.91501	  0.081652	  0.065485	  0.521882	
4.95062	  0.070507	  0.061278	  0.502519	
4.98624	  0.067721	  0.058751	  0.486114	
5.02186	  0.070388	  0.057791	  0.470621	
5.05747	  0.074442	  0.058038	  0.457208	
5.09309	  0.076552	  0.058846	  0.447407	
5.1287	  0.077321	  0.059958	  0.444265	
5.16432	  0.078444	  0.061186	  0.445852	
5.19994	  0.080347	  0.062573	  0.450790	
5.23555	  0.082494	  0.064047	  0.456720	
5.27117	  0.083806	  0.065318	  0.463154	
5.30678	  0.082420	  0.065932	  0.473371	
5.3424	  0.077985	  0.065870	  0.487193	
5.37802	  0.072820	  0.065508	  0.501630	
5.41363	  0.068430	  0.064871	  0.512974	
5.44925	  0.064928	  0.063833	  0.517691	
5.48486	  0.062025	  0.062426	  0.517363	
5.52048	  0.059303	  0.060997	  0.518037	
5.5561	  0.056919	  0.059986	  0.523584	
5.59171	  0.055436	  0.059499	  0.533614	
5.62733	  0.054792	  0.059504	  0.547155	
5.66294	  0.054455	  0.060210	  0.561134	
5.69856	  0.054368	  0.061555	  0.570869	
5.73418	  0.054631	  0.063297	  0.577401	
5.76979	  0.054751	  0.064941	  0.581587	
5.80541	  0.054442	  0.065907	  0.584175	
5.84102	  0.054268	  0.066001	  0.582657	
5.87664	  0.054674	  0.065553	  0.579427	
5.91226	  0.055766	  0.064901	  0.577884	
5.94787	  0.057761	  0.064332	  0.577112	
5.98349	  0.060572	  0.064117	  0.576561	
6.0191	  0.063309	  0.064403	  0.577828	
6.05472	  0.064929	  0.064885	  0.581517	
6.09034	  0.065656	  0.065618	  0.591057	
6.12595	  0.066107	  0.066696	  0.608668	
6.16157	  0.066109	  0.068012	  0.631898	
6.19718	  0.065331	  0.069891	  0.658930	
6.2328	  0.064200	  0.072502	  0.683630	
6.26842	  0.063451	  0.075318	  0.705323	
6.30403	  0.063293	  0.077476	  0.722629	
6.33965	  0.063489	  0.078710	  0.732901	
6.37526	  0.064146	  0.078610	  0.736774	
6.41088	  0.065029	  0.076820	  0.735912	
6.4465	  0.065806	  0.074302	  0.736036	
6.48211	  0.066286	  0.071747	  0.734631	
6.51773	  0.066790	  0.069745	  0.732040	
6.55334	  0.067760	  0.068696	  0.729759	
6.58896	  0.069095	  0.068485	  0.724991	
6.62458	  0.069945	  0.068962	  0.719517	
6.66019	  0.069428	  0.069971	  0.715670	
6.69581	  0.067558	  0.070844	  0.711799	
6.73142	  0.064911	  0.070887	  0.707617	
6.76704	  0.062058	  0.070252	  0.705824	
6.80266	  0.059273	  0.069866	  0.706848	
6.83827	  0.057126	  0.070603	  0.710676	
6.87389	  0.056110	  0.072510	  0.715396	
6.9095	  0.056335	  0.075110	  0.716648	
6.94512	  0.057374	  0.077795	  0.716746	
6.98074	  0.058251	  0.080026	  0.719794	
7.01635	  0.058924	  0.081583	  0.723776	
7.05197	  0.059689	  0.082487	  0.722120	
7.08758	  0.060582	  0.082757	  0.713960	
7.1232	  0.061331	  0.081951	  0.702181	
7.15882	  0.062177	  0.080226	  0.690814	
7.19443	  0.063713	  0.078111	  0.681999	
7.23005	  0.065789	  0.076454	  0.680290	
7.26566	  0.067343	  0.075684	  0.687159	
7.30128	  0.067925	  0.075862	  0.701511	
7.3369	  0.068132	  0.076587	  0.721425	
7.37251	  0.068373	  0.077278	  0.742934	
7.40813	  0.068370	  0.077883	  0.766434	
7.44374	  0.067713	  0.078436	  0.791310	
7.47936	  0.067281	  0.078844	  0.811650	
7.51498	  0.068073	  0.079245	  0.825896	
7.55059	  0.070027	  0.079571	  0.830011	
7.58621	  0.072335	  0.079735	  0.816917	
7.62182	  0.074289	  0.080005	  0.791720	
7.65744	  0.076274	  0.080530	  0.763960	
7.69306	  0.078763	  0.081132	  0.741011	
7.72867	  0.081302	  0.081203	  0.725982	
7.76429	  0.083127	  0.080491	  0.718053	
7.7999	  0.083287	  0.079166	  0.715876	
7.83552	  0.081453	  0.077520	  0.716358	
7.87114	  0.079139	  0.076124	  0.716689	
7.90675	  0.077413	  0.075182	  0.716162	
7.94237	  0.076127	  0.074490	  0.717969	
7.97798	  0.074739	  0.073751	  0.724876	
8.0136	  0.072804	  0.072812	  0.737131	
8.04922	  0.070500	  0.072025	  0.753897	
8.08483	  0.068030	  0.071558	  0.766690	
8.12045	  0.065786	  0.071675	  0.771219	
8.15606	  0.064019	  0.072643	  0.767687	
8.19168	  0.063186	  0.074358	  0.758406	
8.2273	  0.063404	  0.076592	  0.751696	
8.26291	  0.064616	  0.079096	  0.751871	
8.29853	  0.066396	  0.081830	  0.763785	
8.33414	  0.068526	  0.085187	  0.789868	
8.36976	  0.071007	  0.088722	  0.824849	
8.40538	  0.074004	  0.091908	  0.859916	
8.44099	  0.077517	  0.094759	  0.889220	
8.47661	  0.080847	  0.096983	  0.910195	
8.51222	  0.083876	  0.098216	  0.920394	
8.54784	  0.086245	  0.098727	  0.922479	
8.58346	  0.086740	  0.098475	  0.915054	
8.61907	  0.085262	  0.097398	  0.896235	
8.65469	  0.082765	  0.095907	  0.870241	
8.6903	  0.079953	  0.094324	  0.847111	
8.72592	  0.077137	  0.092526	  0.831729	
8.76154	  0.074608	  0.090218	  0.826422	
8.79715	  0.072124	  0.088043	  0.835507	
8.83277	  0.070275	  0.086703	  0.854383	
8.86838	  0.069686	  0.086788	  0.878709	
8.904	  0.069952	  0.088210	  0.905721	
8.93962	  0.070476	  0.090625	  0.933145	
8.97523	  0.070893	  0.093839	  0.962245	
9.01085	  0.071448	  0.097211	  0.988283	
9.04646	  0.072379	  0.099893	  0.999993	
9.08208	  0.073265	  0.101476	  0.990433	
9.1177	  0.073294	  0.102119	  0.962502	
9.15331	  0.072021	  0.101957	  0.922446	
9.18893	  0.070270	  0.101629	  0.885551	
9.22454	  0.069037	  0.101974	  0.860494	
9.26016	  0.068567	  0.103120	  0.852156	
9.29578	  0.068736	  0.104917	  0.863886	
9.33139	  0.070141	  0.107283	  0.891822	
9.36701	  0.073205	  0.110202	  0.929101	
9.40262	  0.077703	  0.113981	  0.965905	
9.43824	  0.082602	  0.118611	  0.989673	
9.47386	  0.086764	  0.123532	  0.997343	
9.50947	  0.089709	  0.127435	  0.990099	
9.54509	  0.091189	  0.129458	  0.972755	
9.5807	  0.091177	  0.129415	  0.953473	
9.61632	  0.089820	  0.128284	  0.940766	
9.65194	  0.087796	  0.126933	  0.934377	
9.68755	  0.085818	  0.125374	  0.926872	
9.72317	  0.084237	  0.123889	  0.916275	
9.75878	  0.082656	  0.122465	  0.908370	
9.7944	  0.080277	  0.120275	  0.903751	
9.83002	  0.077271	  0.117116	  0.902660	
9.86563	  0.074284	  0.113675	  0.906645	
9.90125	  0.071311	  0.109808	  0.909464	
9.93686	  0.068528	  0.105775	  0.908869	
9.97248	  0.066270	  0.101856	  0.905556	
10.0081	  0.064496	  0.097992	  0.898774	
10.0437	  0.062962	  0.094813	  0.886514	
10.0793	  0.061648	  0.092371	  0.861185	
10.1149	  0.061577	  0.090476	  0.814515	
10.1506	  0.063882	  0.088280	  0.750502	
10.1862	  0.068859	  0.085451	  0.678525	
10.2218	  0.076148	  0.082572	  0.607194	
10.2574	  0.084701	  0.079714	  0.540422	
10.293	  0.093037	  0.076950	  0.481235	
10.3286	  0.098810	  0.074040	  0.432024	
10.3643	  0.099993	  0.070992	  0.395174	
10.3999	  0.097770	  0.067866	  0.363329	
10.4355	  0.095196	  0.064401	  0.325122	
10.4711	  0.093749	  0.060128	  0.278941	
10.5067	  0.093789	  0.055545	  0.229418	
10.5423	  0.095371	  0.051802	  0.182936	
10.578	  0.098754	  0.049575	  0.142648	
10.6136	  0.104985	  0.049089	  0.109932	
10.6492	  0.114898	  0.050231	  0.085228	
10.6848	  0.128609	  0.052390	  0.067570	
10.7204	  0.145472	  0.054714	  0.054434	
10.756	  0.164023	  0.056820	  0.044009	
10.7916	  0.181668	  0.058739	  0.035818	
10.8273	  0.195172	  0.060282	  0.029518	
10.8629	  0.201907	  0.061192	  0.024885	
10.8985	  0.201160	  0.061315	  0.021771	
10.9341	  0.195215	  0.060718	  0.019904	
10.9697	  0.186153	  0.059542	  0.018951	
11.0053	  0.174854	  0.057638	  0.018624	
11.041	  0.163026	  0.055213	  0.018630	
11.0766	  0.151989	  0.053032	  0.018770	
11.1122	  0.141731	  0.051326	  0.018862	
11.1478	  0.133528	  0.050074	  0.018753	
11.1834	  0.128968	  0.049139	  0.018466	
